<svg width="347" height="141" viewBox="0 0 347 141" fill="none" xmlns="http://www.w3.org/2000/svg">
<rect width="347" height="141" fill=""/>
<g filter="url(#filter0_d_0_1)">
<path d="M168.784 81.8198L66.1242 4.37443C62.4991 1.63963 57.2697 3.02707 55.4771 7.19931L6.69489 120.737C4.70996 125.356 8.09821 130.5 13.1264 130.5L333.338 130.5C338.376 130.5 341.764 125.338 339.76 120.716L290.538 7.16089C288.735 3.00294 283.517 1.62746 279.899 4.35667L177.216 81.8198C174.72 83.7021 171.28 83.7021 168.784 81.8198Z" fill="#232323"/>
<path d="M168.784 81.8198L66.1242 4.37443C62.4991 1.63963 57.2697 3.02707 55.4771 7.19931L6.69489 120.737C4.70996 125.356 8.09821 130.5 13.1264 130.5L333.338 130.5C338.376 130.5 341.764 125.338 339.76 120.716L290.538 7.16089C288.735 3.00294 283.517 1.62746 279.899 4.35667L177.216 81.8198C174.72 83.7021 171.28 83.7021 168.784 81.8198Z" stroke="black" stroke-width="4"/>
</g>
<line x1="73" y1="119" x2="123" y2="119" stroke="black" stroke-width="6"/>
<line x1="224" y1="119" x2="274" y2="119" stroke="black" stroke-width="6"/>
<path d="M69.6301 27.0509L83.7504 39.8423C87.1735 42.9432 85.9561 48.5869 81.559 50.0009L63.4213 55.8337C59.0243 57.2478 54.7454 53.3716 55.7193 48.8567L59.7368 30.2325C60.7108 25.7175 66.207 23.95 69.6301 27.0509Z" fill="#FB4AFF" stroke="#FB23FF" stroke-width="4"/>
<path d="M276.309 27.0509L262.189 39.8423C258.766 42.9432 259.983 48.5869 264.38 50.0009L282.518 55.8337C286.915 57.2478 291.194 53.3716 290.22 48.8567L286.202 30.2325C285.228 25.7175 279.732 23.95 276.309 27.0509Z" fill="#FB4AFF" stroke="#FB23FF" stroke-width="4"/>
<defs>
<filter id="filter0_d_0_1" x="0.116653" y="0.942093" width="346.231" height="139.558" filterUnits="userSpaceOnUse" color-interpolation-filters="sRGB">
<feFlood flood-opacity="0" result="BackgroundImageFix"/>
<feColorMatrix in="SourceAlpha" type="matrix" values="0 0 0 0 0 0 0 0 0 0 0 0 0 0 0 0 0 0 127 0" result="hardAlpha"/>
<feOffset dy="4"/>
<feGaussianBlur stdDeviation="2"/>
<feComposite in2="hardAlpha" operator="out"/>
<feColorMatrix type="matrix" values="0 0 0 0 0 0 0 0 0 0 0 0 0 0 0 0 0 0 0.25 0"/>
<feBlend mode="normal" in2="BackgroundImageFix" result="effect1_dropShadow_0_1"/>
<feBlend mode="normal" in="SourceGraphic" in2="effect1_dropShadow_0_1" result="shape"/>
</filter>
</defs>
</svg>
